<svg xmlns="http://www.w3.org/2000/svg" viewBox="0 0 723 723" width="100%" height="100%">
  <path d="M 267 476 L 381 476 L 392 441 L 391 440 L 296 440 L 269 472 Z M 593 367 L 592 373 L 591 374 L 591 376 L 587 386 L 583 390 L 579 392 L 577 392 L 574 394 L 568 395 L 566 396 L 566 397 L 573 398 L 574 399 L 579 400 L 584 403 L 587 406 L 590 412 L 590 414 L 592 418 L 592 421 L 593 422 L 593 424 L 594 424 L 595 417 L 599 407 L 604 402 L 608 400 L 616 398 L 617 397 L 620 397 L 621 396 L 620 395 L 616 395 L 615 394 L 610 393 L 601 388 L 597 381 L 597 378 L 596 377 L 596 375 L 594 371 L 594 368 Z M 290 320 L 287 335 L 279 353 L 270 360 L 246 367 L 246 368 L 267 374 L 277 380 L 282 387 L 287 400 L 289 412 L 291 415 L 294 399 L 301 383 L 305 379 L 316 373 L 336 368 L 336 367 L 313 361 L 306 357 L 300 351 L 293 333 L 291 320 Z M 323 286 L 322 294 L 321 295 L 320 300 L 317 305 L 315 307 L 309 310 L 298 313 L 302 315 L 308 316 L 314 319 L 318 323 L 321 329 L 321 332 L 322 333 L 322 336 L 323 337 L 323 341 L 324 341 L 324 339 L 325 338 L 325 334 L 326 333 L 326 331 L 329 324 L 335 318 L 339 317 L 340 316 L 342 316 L 343 315 L 345 315 L 346 314 L 349 314 L 349 313 L 341 311 L 338 309 L 336 309 L 334 308 L 329 303 L 326 296 L 326 293 L 325 292 L 324 286 Z M 560 249 L 526 315 L 604 315 L 642 389 L 609 440 L 527 440 L 498 476 L 628 476 L 683 388 L 626 280 L 573 280 Z M 365 207 L 362 221 L 353 243 L 346 250 L 340 253 L 315 260 L 313 262 L 340 270 L 346 273 L 354 281 L 360 295 L 364 314 L 366 317 L 369 301 L 377 281 L 385 273 L 391 270 L 419 261 L 393 254 L 382 248 L 375 239 Z M 578 170 L 456 170 L 420 244 L 453 262 L 400 286 L 335 418 L 420 420 L 369 594 L 587 338 L 490 336 Z M 492 230 L 444 368 L 519 368 L 520 371 L 435 476 L 464 387 L 385 385 Z M 431 173 L 363 128 L 272 192 L 259 219 L 173 219 L 137 299 L 95 301 L 40 387 L 94 475 L 244 476 L 279 434 L 267 394 L 228 440 L 114 440 L 82 386 L 114 337 L 241 337 L 218 302 L 175 300 L 196 255 L 243 256 L 230 289 L 253 321 L 305 212 L 364 171 L 416 205 Z" fill="currentColor" fill-rule="evenodd"/>
</svg>
